<svg version="1.1" id="Layer_1" xmlns="http://www.w3.org/2000/svg" x="0" y="0" viewBox="0 0 1920 470.41" style="enable-background:new 0 0 1920 470.41" xml:space="preserve"><style>.st0{fill-rule:evenodd;clip-rule:evenodd;fill:#fff}</style><path class="st0" d="m308.48 468.29-225.4.19 1.61-7.94 164.26-4.71c31.49-1.2 62.08-2.86 91.68-12.95 60.68-20.26 109.05-61.59 123.28-112.75 15.26-54.83-19.83-108.19-85.92-112.8 56-16.38 103.73-51.87 116.45-97.57 16.5-59.32-13.36-89.29-63.78-100.3 83.88-1.31 149.49 26.89 127.16 107.15-12.7 45.69-61.57 80.44-117.22 95.6 65.33 4.87 101.17 67.1 83.85 121.34-18.03 56.46-63.58 91.54-124.26 111.8-29.64 10.08-60.24 11.74-91.71 12.94z"/><path class="st0" d="m190.16 439.91-105.77 5.25c-.03-2.7.11-2.09-.21-4.7l267.94-79.25.89-9.68L79.3 422.29c-.84-2.59-.93-1.88-2.06-4.33l286.5-158.63-2.89-7.91L68.12 402.76c-1.76-2.5-1-1.44-3.05-3.7L405.65 81.02l-4.18-8.62L52.54 387.79c-1.66-1.17-2.72-2.02-4.49-3.07L297.72 25.34l-10.52.09L31.68 377.26c-1.42-.49-3.02-.93-4.49-1.34L175.56 24.8h-9.43L6.5 373.24c-1.96-.02-6.47.02-6.47.02L103.34.08 296.3.67c91.29-5.22 163.39 19.41 139.67 104.68-12.72 45.69-60.45 81.18-116.1 96.35l-.33 1.22c66.09 4.62 103.32 57.84 88.08 112.65-14.23 51.16-65.1 91.13-125.78 111.39-29.62 10.08-60.2 11.74-91.68 12.95zM700.32 467.63c14.34 0 50.37-1.8 59.09-42.81 4.71-22.19 1.72-37.66-21.54-41.03l.09-.44c19.14-3.59 31.2-17.03 35.14-35.65 7.34-34.52-12.38-41.93-38.16-41.93h-60.07l-34.4 161.85h59.85v.01zm3.11-136.96h20.84c11.43 0 17.65 8.75 15.12 20.62-3.34 15.69-14.69 20.62-22.09 20.62h-22.65l8.78-41.24zm-14.06 66.12h19.72c17.03 0 20.56 8.75 17.51 23.09-4.81 22.63-21 22.85-28.18 22.85H679.6l9.77-45.94zM868.28 390.07c4.38-20.62 2.89-37.89-37.23-37.89-12.1 0-22.85 2.01-31.16 7.4-8.49 5.16-14.61 13.89-17.52 27.57h30.93c1.9-8.97 4.57-17.25 15.55-17.25 11.42 0 11.29 6.94 9.25 16.59l-1.85 8.75c-29.27-.44-58.53 1.12-66.47 38.56-4.19 19.72.4 36.09 22.36 36.09 13.66 0 24.06-5.61 33.26-17.27h.44l-1.85 15.02h29.37c.81-6.94 1.42-14.12 2.91-21.08l12.01-56.49zm-35.81 22.87c-2.63 12.34-5.05 37.43-23.64 37.43-10.31 0-9.55-9.87-7.84-17.93 4.28-20.18 15.65-18.84 31.48-19.5zM924.23 354.44h-31.61l-24.06 113.21h31.61l16.57-78.02c2.14-10.09 5.6-17.93 15.69-17.93s10.22 7.84 8.07 17.93l-16.57 78.02h31.61l19.29-90.8c3.34-15.69-7.99-24.66-23-24.66-11.88 0-21.16 3.59-29.59 13.68h-.44l2.43-11.43zM1002.12 467.63l13.11-61.65h.45l16.26 61.65h35.64l-22.3-62.76 42.78-50.43h-32.96l-38.62 47.73h-.44l20.48-96.38h-31.6l-34.4 161.84zM1147.32 469.88c40.8 0 51.46-24.89 58.99-60.3 6.58-30.93 7.72-57.39-33.97-57.39s-51.81 26.46-58.37 57.39c-7.54 35.4-7.45 60.3 33.35 60.3zm4.29-20.18c-11.66 0-13-7.4-5.66-41.91 5-23.53 8.65-35.43 22.09-35.43 13.46 0 12.05 11.88 7.04 35.43-7.32 34.5-11.81 41.91-23.47 41.91zM1290.12 305.11c-3.76-.22-7.31-.44-11.12-.44-38.56 0-39.54 17.25-46.23 49.77h-14.34l-4.14 19.5h14.12l-19.91 93.71h31.61l19.91-93.71h14.8l4.14-19.5h-14.8l2.91-13.68c2.44-11.43 6.17-16.37 18.76-15.47l4.29-20.18zM1361.89 467.63c14.34 0 50.37-1.8 59.09-42.81 4.71-22.19 1.72-37.66-21.54-41.03l.09-.44c19.15-3.59 31.19-17.03 35.16-35.65 7.34-34.52-12.38-41.93-38.16-41.93h-60.08l-34.4 161.85h59.84v.01zm3.12-136.96h20.84c11.43 0 17.65 8.75 15.12 20.62-3.34 15.69-14.69 20.62-22.09 20.62h-22.63l8.76-41.24zm-14.06 66.12h19.72c17.03 0 20.56 8.75 17.51 23.09-4.81 22.63-21 22.85-28.17 22.85h-18.84l9.78-45.94zM1529.83 390.07c4.38-20.62 2.89-37.89-37.23-37.89-12.11 0-22.85 2.01-31.16 7.4-8.49 5.16-14.61 13.89-17.52 27.57h30.93c1.91-8.97 4.57-17.25 15.55-17.25 11.43 0 11.31 6.94 9.25 16.59l-1.87 8.75c-29.27-.44-58.52 1.12-66.47 38.56-4.19 19.72.4 36.09 22.36 36.09 13.66 0 24.06-5.61 33.26-17.27h.44l-1.85 15.02h29.37c.81-6.94 1.44-14.12 2.91-21.08l12.03-56.49zm-35.79 22.87c-2.63 12.34-5.04 37.43-23.64 37.43-10.31 0-9.57-9.87-7.84-17.93 4.28-20.18 15.65-18.84 31.48-19.5zM1554.19 354.44l-24.06 113.21h31.61l13.1-61.65c2.39-11.21 6.26-27.34 33.67-25.56l6.01-28.25c-12.78 0-24.36 3.81-32.94 16.81h-.46l3.1-14.57-30.03.01zM1638.26 469.88c40.8 0 51.46-24.89 58.99-60.3 6.58-30.93 7.72-57.39-33.97-57.39s-51.8 26.46-58.37 57.39c-7.54 35.4-7.45 60.3 33.35 60.3zm4.29-20.18c-11.66 0-13-7.4-5.66-41.91 5-23.53 8.65-35.43 22.09-35.43s12.04 11.88 7.04 35.43c-7.34 34.5-11.81 41.91-23.47 41.91zM1784.4 467.63l34.41-161.85h-31.61l-12.62 59.4h-.46c-4.44-9.63-11.58-13-23.01-13-31.84 0-38.42 35.19-43.27 58.06-4.97 23.31-13.81 59.62 18.93 59.62 12.1 0 21.67-3.81 29.83-14.79h.44l-2.67 12.56h30.03zm-40.71-17.25c-11.43 0-10.93-11.88-4.87-40.35 4.81-22.65 7.92-38.34 21.59-38.34 13 0 9.44 15.69 4.63 38.34-6.04 28.47-10.6 40.35-21.35 40.35zM1902.84 390.07c4.38-20.62 2.91-37.89-37.23-37.89-12.1 0-22.84 2.01-31.17 7.4-8.49 5.16-14.61 13.89-17.52 27.57h30.93c1.91-8.97 4.57-17.25 15.55-17.25 11.43 0 11.31 6.94 9.25 16.59l-1.87 8.75c-29.26-.44-58.52 1.12-66.47 38.56-4.19 19.72.4 36.09 22.36 36.09 13.66 0 24.06-5.61 33.26-17.27h.44l-1.85 15.02h29.37c.81-6.94 1.44-14.12 2.91-21.08l12.04-56.49zm-35.79 22.87c-2.63 12.34-5.05 37.43-23.64 37.43-10.31 0-9.55-9.87-7.84-17.93 4.28-20.18 15.65-18.84 31.48-19.5zM1587.96 222.13h27.33l-6.14 22.76h-27.33l6.14-22.76zm-374.48-22.44h27.33l-6.15 22.76h-27.33l6.15-22.76zM775.93 36.08h27.33l-6.15 22.76h-27.33l6.15-22.76zm343.13 34.08-4.3 13.74h17.84l-11.67 45.42h-23.04l-3.91 14h23.34l-16.89 65.73h28.72L1161.3 83.9h22.71l-32.17 125.15h28.72l32.15-125.15h23.96l-20.26 78c-3.19 12.42 7.64 19.5 22 19.5 11.37 0 20.24-2.83 28.74-10.82l-9.55 38.32h31.31c.87-5.85 9.22-41.17 10.72-47.02l7.51-28.91c2.91-6.25 7.7-12.08 14.65-12.08 9.65 0 9.77 6.2 7.72 14.19l-15.85 61.7h30.24l18.46-71.8c3.19-12.4-7.64-19.5-22-19.5-11.28 0-20.99 3.53-29.02 11.39l8.57-32.98h52.06l4.3-13.74h-257.22l.01.01zm170.59 13.74-17.25 65c-2.06 7.99-5.73 17.08-15.37 17.08s-9.87-5.85-7.81-13.84l17.74-68.24h22.69zm-258.84 124.91H987.9l3.62-14.17h37.4c9.46 0 23.42-5.31 28.23-24.09 3.05-11.88-2.06-25.64-19.14-25.64h-28.09l3.75-15.48h32.56c11.55 0 20.39-9.82 23.74-22.82 2.53-9.84 1.95-23-15.17-23h-34.94l3.62-14.17h42.02c21.3 0 44.43 9.17 38.26 34.73-4.59 19.03-14.38 28.56-36.82 32.17 23.23 3.16 27.82 18.6 23.09 36.99-8.73 33.99-44.83 35.48-59.22 35.48zM715.01 70.16h-48.19l-4.29 13.74h70.08l-6.77 26.65c-4.25-7.62-16.34-10.56-27.28-10.56-30.44 0-38.97 24.66-43.62 42.75-4.74 18.44-10.98 50.34 20.34 50.34 11.58 0 25.98-2.75 34.21-11.43l-7.58 27.3h28.74L762.79 83.9h77.5l-6.77 26.65c-4.25-7.62-11.09-10.28-22.01-10.28-30.44 0-38.07 25.32-42.72 43.41-4.73 18.44-11.88 49.68 19.44 49.68 11.58 0 20.72-3.02 28.96-11.7l-7.43 27.22 28.56.06 17.02-68.61c5.14-17.25 10.53-24.04 19.66-24.04 10.94 0 10.45 9.39 4.67 31.92-4.6 17.9-8.16 33.56-21.24 33.56-.93 0-2.07-.59-2.83-.73l-2.15 8.1c3.07 2.77 8.49 3.99 14.49 3.99 30.44 0 38.3-26.14 42.95-44.24 4.73-18.44 11.59-48.03-19.71-48.03-11.58 0-21.16 3.35-28.97 12.04l7.13-29.02h58.18l4.3-13.74H764.4L749.62 2.45 724.3 13.71l21.46 56.41h-8.11l-26.79-46.4-20.96 15.36 25.11 31.08zm-22.09 53.3c3.48-5.11 8.33-8.07 16.08-7.99 16.32.16 12.75 12.65 8.14 30.56l-1.79 6.58-22.43-29.15zm17.17 43.27c-3.99 7.62-9 10.96-17.08 10.96-13.82 0-14.06-9.24-8.27-31.76.81-3.15 1.6-6.14 2.42-8.92l22.93 29.72zm99.66 42.14 7.42-27.23c-.01 0 .15-.06-7.42 27.23zm-5.37-30.95c-10.94 0-10.45-9.39-4.67-31.92 4.6-17.9 7.58-30.32 20.65-30.32 12.43 0 9.03 12.42 4.43 30.32-5.76 22.53-10.11 31.92-20.41 31.92zm843.37-68.14c-2.55-6.74-10.53-8.7-28.53-8.7-29.35 0-34.34 3.27-41.29 28.77-3.57 13.78-6.69 30.44 12.98 30.44 7.51-.02 23.19.27 23.19.27 17.7 0 16.84 6.07 13.19 17.74-4.46 16.19-8.37 18.99-19.97 18.99-19.26 0-12.62-11.09-9.57-22.32h-33.15c-6.63 21.3-5.54 34.45 23.82 34.43H1622c17.22.02 31-1.64 38.4-29.84 5.95-25.04 2.93-31.38-13.92-31.38h-22.95c-13.41.33-17.25-2.51-13.98-16.04 4.55-15.82 7.84-17.37 18.96-17.38 12.24 0 16.72 3.57 14.28 13.27h28.83l11.47-44.12h23.01l-32.15 125.15h28.72l32.17-125.15h80.91l-5.47 19.25s-12.27-.7-23.22-.7c-30.44 0-41.44 22.13-47.86 47.34-6.26 24.56-12.45 60.79 24.66 60.79 6.39 0 14.76-.59 22.35-2.61 1.25 8.57 5.52 15.99 12.6 24.39l30.9-16.95s-15.47-.93-21.86-13.02c12.43-3.51 18.88-10.26 22.41-22.84 2.51-8.9 2.47-19.04-15.99-19.04-20.21 0-30.03 19.93-28.15 37.01-2.5.84-4.52 1.34-5.74 1.34-18.05 0-13.06-16.7-6.63-44.46 5.36-23.09 8.97-38.73 22.05-38.73h40.12l9.98-31.77h24.94l-32.15 125.15h28.72l32.17-125.15h16.13l4.29-13.74h-192.92L1712.3 2.5l-25.32 11.26 21.46 56.41h-8.11l-26.79-46.4-20.96 15.36 25.11 31.05h-204.33l-4.29 13.74h69.62l-6.77 26.65c-4.25-7.62-16.34-10.56-27.28-10.56-30.44 0-40.04 26.46-44.69 44.54-4.74 18.44-9.9 48.55 21.41 48.55 11.58 0 25.98-2.75 34.22-11.43l-7.58 27.3h28.74l32.14-125.04h85.02l-6.15 25.85zm-149.51 14.77c3.51-5.79 8.49-9.17 16.8-9.09 16.32.16 12.75 12.65 8.14 30.56l-2.21 8.05-22.73-29.52zm14.77 43.35c-3.87 6.78-8.78 9.79-16.43 9.79-13.82 0-14.08-9.24-8.27-31.76l1.98-7.46 22.72 29.43zM1227.57 26.59c-7.07 27.11-19.48 28.59-35.03 28.58h-30.3c-25.32 0-27.34-10.83-22.24-28.58h29.92c-2.85 9.22-6.58 17.65 9.36 17.65 10.49 0 14-2.53 18.03-17.14l30.26-.51z"/></svg>
